<?xml version="1.0" standalone="no"?>
<!DOCTYPE svg PUBLIC "-//W3C//DTD SVG 20010904//EN"
 "http://www.w3.org/TR/2001/REC-SVG-20010904/DTD/svg10.dtd">
<svg version="1.0" xmlns="http://www.w3.org/2000/svg"
 width="256.000000pt" height="256.000000pt" viewBox="0 0 256.000000 256.000000"
 preserveAspectRatio="xMidYMid meet">
<metadata>
Created by potrace 1.11, written by Peter Selinger 2001-2013
</metadata>
<g transform="translate(0.000000,256.000000) scale(0.100000,-0.100000)"
fill="#000000" stroke="none">
<path d="M940 2533 c-271 -37 -471 -134 -641 -310 -90 -93 -148 -176 -201
-290 -116 -247 -126 -555 -27 -808 59 -152 132 -261 251 -375 85 -83 83 -81
164 -132 164 -104 353 -159 549 -159 205 0 372 46 556 154 l45 27 280 -280
c153 -154 295 -291 315 -305 69 -49 178 -36 237 28 48 51 60 143 28 205 -8 15
-145 159 -304 320 l-291 294 49 91 c76 143 102 224 126 387 5 36 5 211 0 240
-3 14 -7 41 -10 60 -12 77 -58 213 -100 293 l-44 84 57 57 c53 53 59 56 85 46
38 -14 90 -13 129 4 35 14 97 78 97 100 0 10 29 13 135 12 l136 -1 -3 45 -3
45 -120 1 c-150 2 -143 1 -149 22 -10 29 -59 77 -93 91 -76 31 -174 0 -214
-67 -25 -43 -32 -118 -14 -153 13 -25 12 -28 -40 -79 l-54 -53 -28 34 c-159
190 -394 324 -638 364 -46 8 -227 13 -265 8z m1239 -149 c39 -32 42 -80 9
-119 -45 -52 -131 -27 -144 41 -10 54 29 98 93 103 6 1 25 -11 42 -25z"/>
</g>
</svg>
